<svg width="43" height="85" viewBox="0 0 43 85" fill="none" xmlns="http://www.w3.org/2000/svg">
<path d="M42.8007 58.7165C42.6014 56.1377 42.8007 54.5508 41.2063 52.5671C40.2097 51.3769 39.2132 50.7818 38.6153 49.1949C36.6222 44.8308 39.4125 43.6406 41.2063 40.6651C42.4021 38.6814 42.4021 36.4994 42.4021 34.119C42.2028 30.3501 42.4021 26.1844 41.6049 22.6138C41.007 19.8366 39.6118 18.8448 37.0209 18.2497C36.6222 18.2497 36.2236 18.0513 35.825 18.0513C36.0243 15.2742 36.2236 11.1085 33.6327 9.52159C31.8389 8.92649 29.4473 8.72812 27.0556 8.72812C27.0556 7.73629 27.0556 6.94282 26.8563 5.95099C28.0521 5.55426 29.0487 4.95916 28.8494 3.76896C28.6501 0.595099 24.2654 0 21.8737 0C19.8806 0 18.0869 -3.54707e-07 16.2932 1.38856C15.2966 2.18203 13.7022 3.5706 14.1008 5.15753C14.3001 6.14936 15.2966 6.54609 16.4925 6.74446C16.4925 7.53792 16.4925 8.52975 16.6918 9.32322C14.3001 9.12485 11.7092 9.12486 9.91541 10.1167C6.92584 11.7036 7.52375 15.6709 7.72306 18.4481C5.5307 18.6464 3.13905 19.0432 1.94322 21.2252C0.548087 23.804 0.946697 28.168 1.146 30.9452C1.34531 34.7141 0.747392 37.888 2.93974 41.0618C4.13557 42.8471 5.73001 44.0373 5.53071 46.4177C5.53071 48.9965 3.93627 50.5834 2.34183 52.5671C0.946698 54.5508 0.548089 56.1377 0.348784 58.5181C-0.0498256 62.2871 -0.0498264 66.2544 0.149478 70.0233C0.149478 73.5939 -0.448435 78.3547 0.747393 81.727C1.54461 83.909 2.93974 84.3057 4.93279 84.5041C10.314 85.2976 15.8946 84.9008 21.4751 84.9008C26.4577 84.9008 31.241 84.9008 36.2236 84.9008C38.416 84.9008 40.409 84.7025 41.4056 82.9172C42.8007 80.5368 42.4021 76.1727 42.6014 73.5939C43.1993 68.4364 43 63.6756 42.8007 58.7165ZM17.6883 2.77713C19.0834 1.7853 20.4786 1.7853 22.073 1.7853C23.0695 1.7853 24.066 1.58693 24.8633 1.98366C25.0626 2.3804 27.0556 3.5706 26.8563 3.96733C26.657 4.76079 22.6709 4.36406 21.8737 4.36406C20.2793 4.36406 18.6848 4.56243 17.0904 4.56243C16.8911 4.56243 16.0939 4.56243 16.0939 4.56243C15.8946 4.16569 17.489 2.9755 17.6883 2.77713ZM18.4855 6.54609C19.8806 6.54609 21.0765 6.34772 21.8737 6.14936C22.4716 6.14936 23.6674 6.14936 24.8633 6.14936C24.8633 6.54609 24.8633 7.14119 24.8633 7.53792C24.8633 7.93466 24.8633 8.33139 24.8633 8.72812C23.0695 8.92649 21.2758 9.12486 19.8806 9.12486C19.482 9.12486 19.0834 9.12486 18.6848 9.12486C18.6848 8.33139 18.4855 7.53792 18.4855 6.54609ZM12.7057 11.5053C15.2966 11.3069 18.0869 11.3069 20.6779 11.1085C23.2688 11.1085 26.0591 10.9102 28.6501 11.1085C33.832 11.1085 33.832 13.8856 33.832 18.0513C30.0452 17.6546 26.0591 17.6546 22.2723 17.4562C18.0869 17.4562 13.9015 17.4562 9.7161 17.853C9.5168 15.0758 9.3175 11.902 12.7057 11.5053ZM41.007 71.0152C41.007 74.189 41.4056 79.7433 38.8146 81.727C36.2236 83.7106 31.0417 82.7188 28.0521 82.7188C24.066 82.7188 20.08 82.9172 16.0939 82.9172C12.5064 82.9172 4.33488 84.1074 2.54114 79.9417C1.54461 77.5613 2.14253 73.1972 2.14253 70.6184C2.14253 67.4446 1.94322 64.0723 2.14253 60.8985C2.34183 57.5263 2.74044 55.5426 4.53418 52.9638C5.73001 51.3769 6.92584 49.79 7.32445 47.8063C7.72306 45.6243 7.32445 43.6406 6.12862 41.8553C5.1321 40.2684 4.13557 39.6733 3.53766 37.888C2.93975 35.706 3.13905 33.3256 3.13905 31.1435C2.93974 26.5811 2.54114 21.4236 8.12167 20.4317C12.905 19.6383 17.489 19.6383 22.2723 19.6383C25.8598 19.8366 29.4473 20.035 33.2341 20.2334C35.6257 20.4317 38.2167 20.2334 39.6118 23.0105C40.2097 24.3991 40.0104 26.3827 40.2097 27.9697C40.409 30.5484 40.6083 33.3256 40.6083 35.9043C40.6083 39.0782 39.0139 40.2684 37.4195 42.6488C35.2271 45.8226 35.825 49.5916 38.416 52.3687C39.0139 53.1622 40.0104 53.7573 40.6083 54.5508C41.4056 56.1377 41.007 58.7165 41.2063 60.5018C41.007 64.0723 41.2063 67.6429 41.007 71.0152Z" fill="#2B3541"/>
<path d="M14.4994 44.2357C19.482 44.6325 24.4646 44.6325 29.4473 44.0374C30.6431 43.839 30.6431 42.0537 29.4473 42.0537C24.4646 42.6488 19.482 42.6488 14.4994 42.2521C13.3036 42.2521 13.3036 44.0374 14.4994 44.2357Z" fill="#2B3541"/>
<path d="M30.0452 50.1867C24.664 48.9965 19.0834 48.7982 13.7022 49.9884C12.5064 50.1867 12.905 52.1704 14.3001 51.7737C19.4821 50.7818 24.4647 50.7818 29.6466 51.972C30.6431 52.3688 31.241 50.5835 30.0452 50.1867Z" fill="#2B3541"/>
<path d="M6.9256 24.2007C4.53395 26.1843 5.33117 29.3582 5.33117 32.1353C5.33117 33.3255 7.32421 33.3255 7.32421 32.1353C7.32421 30.1517 6.52699 26.9778 8.32073 25.5892C9.31726 24.7958 7.92212 23.4072 6.9256 24.2007Z" fill="#2B3541"/>
<path d="M10.1146 22.0187C8.91882 22.0187 8.91882 24.0023 10.1146 24.0023C11.5098 24.0023 11.5098 22.0187 10.1146 22.0187Z" fill="#2B3541"/>
</svg>
