<svg width="96" height="30" viewBox="0 0 96 30" fill="none" xmlns="http://www.w3.org/2000/svg">
<path d="M64.9104 9.56728C64.4815 5.54333 61.9979 2.14533 58.4081 0.714596C54.8183 -0.71614 50.7317 0.0439387 47.8418 2.61479C46.1033 1.07228 43.8455 0.155715 41.4975 0.0439386C38.6979 -0.0901929 36.0563 0.871082 34.0469 2.77128C32.1729 4.53734 31.0215 6.97407 30.7957 9.61199C30.6828 10.9309 30.8183 12.2499 31.2472 13.6583L13.727 13.6136C13.2529 13.6136 12.8691 13.8371 12.6433 14.2172C12.3949 14.6419 12.3949 15.1784 12.6433 15.6032C12.8691 15.9832 13.2529 16.2068 13.727 16.2068L33.0986 16.2515C33.5502 16.2515 33.9114 16.0503 34.1372 15.715C34.3855 15.3349 34.4307 14.7984 34.2275 14.3513C32.7148 10.8862 33.2792 7.21997 35.695 4.80561C37.1852 3.33016 39.1494 2.57008 41.204 2.63715C43.3714 2.70421 45.4486 3.7102 46.8935 5.36449C47.1193 5.61039 47.458 5.76688 47.8418 5.76688C48.2256 5.76688 48.5643 5.63275 48.79 5.36449C51.0252 2.81599 54.3893 1.92178 57.4147 3.08425C60.0788 4.11259 61.9979 6.68345 62.314 9.63434C62.4043 10.4838 63.172 10.9086 63.8719 10.8415C64.5492 10.7521 64.9782 10.2379 64.9104 9.56728Z" fill="#2A2A2A"/>
<path d="M9.30183 26.1549H6.18612C5.8023 26.1549 5.50879 25.8419 5.50879 25.4842V4.20197C5.50879 3.82193 5.82488 3.53131 6.18612 3.53131H9.3244C9.70822 3.53131 10.0017 3.84428 10.0017 4.20197V25.4842C9.97915 25.8419 9.68565 26.1549 9.30183 26.1549Z" fill="#2A2A2A"/>
<path d="M3.83819 23.4945H0.677328C0.316087 23.4945 0 23.2039 0 22.8239V6.79517C0 6.43749 0.293509 6.12451 0.677328 6.12451H3.83819C4.19944 6.12451 4.51552 6.41513 4.51552 6.79517V22.8239C4.51552 23.2039 4.22201 23.4945 3.83819 23.4945Z" fill="#2A2A2A"/>
<path d="M14.7658 28.4575H11.6501C11.2663 28.4575 10.9502 28.1445 10.9502 27.7645V1.8771C10.9502 1.49706 11.2663 1.18408 11.6501 1.18408H14.7658C15.1496 1.18408 15.4657 1.49706 15.4657 1.8771V27.7868C15.4657 28.1669 15.1496 28.4575 14.7658 28.4575Z" fill="#2A2A2A"/>
<path d="M82.1148 14.2172C81.889 13.8372 81.5052 13.6136 81.0311 13.6136L62.6755 13.6584C62.2691 13.6584 61.7272 13.8819 61.524 14.329C59.4469 18.8895 55.2474 22.3099 52.2446 24.5007C50.9125 25.4619 49.5804 26.3562 48.2484 27.1609L48.1129 27.228C47.9097 27.3398 47.9097 27.3398 47.7291 27.2727C47.2098 27.0715 46.6905 26.7138 46.1938 26.3785C45.9906 26.2444 45.7874 26.1103 45.6068 25.9761C44.2521 25.1043 43.0781 24.2771 41.9944 23.45C39.8495 21.7733 38.0884 20.0967 36.5983 18.2635C36.1693 17.727 35.492 17.6599 34.9501 18.0847C34.4083 18.5095 34.1599 19.359 34.7018 20.0296C36.1468 21.7957 37.8627 23.4723 39.9624 25.1266C41.1816 26.0879 42.4685 27.0268 43.8006 27.8987C44.4779 28.3458 45.2004 28.7929 45.9454 29.24L46.1035 29.3294C46.6228 29.6424 47.2098 30.0001 47.9097 30.0001C48.0452 30.0001 48.2032 29.9777 48.3613 29.9554C48.9257 29.8212 49.4676 29.4635 49.9643 29.1506C50.0997 29.0611 50.2126 28.9717 50.3481 28.9047C51.1383 28.4128 51.9285 27.8763 52.7187 27.3398C54.9313 25.7973 56.8053 24.2771 58.476 22.6899C60.7564 20.4991 62.4045 18.3753 63.5108 16.2516L81.0311 16.2069C81.5052 16.2069 81.889 15.9833 82.1148 15.6033C82.3631 15.1785 82.3631 14.642 82.1148 14.2172Z" fill="#FBF138"/>
<path d="M86.6978 26.1549H89.8361C90.2199 26.1549 90.5135 25.8419 90.5135 25.4843V4.20203C90.5135 3.82199 90.1974 3.53137 89.8361 3.53137H86.6978C86.314 3.53137 86.0205 3.84435 86.0205 4.20203V25.4843C86.0205 25.8419 86.314 26.1549 86.6978 26.1549Z" fill="#FBF138"/>
<path d="M92.1617 23.4947H95.3226C95.6838 23.4947 95.9999 23.204 95.9999 22.824V6.79529C95.9999 6.43761 95.7064 6.12463 95.3226 6.12463H92.1617C91.8005 6.12463 91.4844 6.41525 91.4844 6.79529V22.824C91.4844 23.204 91.7779 23.4947 92.1617 23.4947Z" fill="#FBF138"/>
<path d="M81.2341 28.4575H84.3498C84.7336 28.4575 85.0497 28.1445 85.0497 27.7645V1.8771C85.0497 1.49706 84.7336 1.18408 84.3498 1.18408H81.2341C80.8503 1.18408 80.5342 1.49706 80.5342 1.8771V27.7868C80.5342 28.1669 80.8503 28.4575 81.2341 28.4575Z" fill="#FBF138"/>
</svg>
